<?xml version="1.0" encoding="utf-8"?>
<!-- Generator: Adobe Illustrator 25.4.1, SVG Export Plug-In . SVG Version: 6.00 Build 0)  -->
<svg version="1.1" id="Layer_1" xmlns="http://www.w3.org/2000/svg" xmlns:xlink="http://www.w3.org/1999/xlink" x="0px" y="0px"
	 viewBox="0 0 287.92 164.16" style="enable-background:new 0 0 287.92 164.16;" xml:space="preserve">
<style type="text/css">
	.st0{fill:none;stroke:#1D1D1B;stroke-miterlimit:10;}
</style>
<g id="Layer_2_00000132802784699190411890000000141809771883259813_">
	<g id="Layer_1-2">
		<path class="st0" d="M0.21,1.29c5.42-2.54,11.9,1.46,14.92,6.58s3.8,11.31,6.05,16.84c5.95,14.65,21.8,23.52,37.55,25.02
			s31.45-3.21,46.1-9.13c6.62-2.66,13.4-5.8,17.79-11.42s5.49-14.43,0.6-19.65c-6.04-6.41-18.13-3.04-21.92,4.91
			c-3.78,7.95-0.57,17.87,5.58,24.17c6.15,6.3,14.68,9.67,23.08,12.31s17.09,4.78,24.66,9.28c11.89,7.07,20.02,19.7,22.79,33.25
			s0.43,27.87-5.33,40.45c-2.24,4.91-5.17,9.78-9.73,12.67c-4.56,2.9-11.1,3.26-15.06-0.41c-4.46-4.13-3.93-11.88,0.08-16.5
			c4.01-4.62,10.29-6.52,16.37-6.88c13-0.65,25.51,5,36.57,11.85c11.07,6.85,21.36,15.19,33.18,20.59
			c11.82,5.4,25.89,7.86,37.78,2.57c4.91-2.19,9.52-5.99,10.9-11.2s-1.69-11.68-7.02-12.5"/>
	</g>
</g>
</svg>
