<svg xmlns="http://www.w3.org/2000/svg" viewBox="0 0 543.79 656.07"><defs><style>.cls-1{fill:none;stroke:#1d1d1b;stroke-miterlimit:10;}</style></defs><g id="Layer_2" data-name="Layer 2"><g id="Layer_1-2" data-name="Layer 1"><g id="Layer_2-2" data-name="Layer 2"><g id="Layer_1-2-2" data-name="Layer 1-2"><path class="cls-1" d="M44.26.5C18.44,2.16-2.93,28.69,1,54.27,4.56,78,26.13,95.62,49.08,102.6S96.5,108.15,120.5,108c70-.54,142.12,10.82,201.46,47.89S425.5,259.43,421.7,329.3c-1.19,21.86-7.15,43.91-20.13,61.55S368,421.19,346.14,421.63c-32.81.66-62.27-28.12-66.19-60.7s15.25-65.61,43.6-82.14,64.13-17.64,95.22-7.11,57.73,31.82,78.83,56.91c27.24,32.44,46.48,73.92,43.08,116.14S506.83,528.29,465,535.25c-14.63,2.44-33.42-2.21-36.64-16.7-3.65-16.41,18.89-29.07,34.17-22s22.19,25.14,23.61,41.9-1.1,33.83,2.16,50.32c2.33,11.78,8.4,23.75,19.27,28.86,8.45,4,38.83,10.59,33.17-9.21-4-14-27.16,6.92-22,24,4.22,14,9,17.87,24.85,23.18"/></g></g></g></g></svg>